<?xml version="1.0" encoding="UTF-8"?>
<!DOCTYPE svg PUBLIC "-//W3C//DTD SVG 1.1//EN" "http://www.w3.org/Graphics/SVG/1.1/DTD/svg11.dtd">
<svg xmlns="http://www.w3.org/2000/svg" version="1.1" width="300px" height="300px" style="shape-rendering:geometricPrecision; text-rendering:geometricPrecision; image-rendering:optimizeQuality; fill-rule:evenodd; clip-rule:evenodd" xmlns:xlink="http://www.w3.org/1999/xlink">
<g><path style="opacity:0.987" fill="#00f08f" d="M 133.5,-0.5 C 144.833,-0.5 156.167,-0.5 167.5,-0.5C 223.884,10.0463 259.718,43.0463 275,98.5C 275.5,165.499 275.667,232.499 275.5,299.5C 270.833,299.5 266.167,299.5 261.5,299.5C 237.026,294.201 218.193,280.868 205,259.5C 203.259,256.691 202.092,253.691 201.5,250.5C 177.802,250.915 154.135,250.415 130.5,249C 90.4756,241.919 59.9756,221.086 39,186.5C 21.7608,153.107 18.7608,118.44 30,82.5C 44.2311,45.269 70.0645,19.769 107.5,6C 116.14,3.17319 124.807,1.00652 133.5,-0.5 Z M 141.5,79.5 C 169.463,77.3846 187.296,89.718 195,116.5C 195.5,134.497 195.667,152.497 195.5,170.5C 176.796,170.904 158.13,170.404 139.5,169C 117.031,162.692 105.031,147.859 103.5,124.5C 105.661,100.456 118.328,85.4556 141.5,79.5 Z"/></g>
</svg>
