<?xml version="1.0" encoding="UTF-8"?>
<!DOCTYPE svg PUBLIC "-//W3C//DTD SVG 1.1//EN" "http://www.w3.org/Graphics/SVG/1.1/DTD/svg11.dtd">
<svg xmlns="http://www.w3.org/2000/svg" version="1.1" width="1080px" height="1080px" style="shape-rendering:geometricPrecision; text-rendering:geometricPrecision; image-rendering:optimizeQuality; fill-rule:evenodd; clip-rule:evenodd" xmlns:xlink="http://www.w3.org/1999/xlink">
<g><path style="opacity:0.99" fill="#fefffe" d="M 195.5,318.5 C 272.176,312.76 332.009,341.426 375,404.5C 387.066,424.362 395.399,445.695 400,468.5C 400.5,565.833 400.667,663.166 400.5,760.5C 355.304,759.824 321.137,740.157 298,701.5C 295.597,697.365 293.763,693.032 292.5,688.5C 265.498,688.667 238.498,688.5 211.5,688C 141.916,682.981 89.7498,650.481 55,590.5C 28.2009,536.268 26.5343,481.268 50,425.5C 80.2821,365.05 128.782,329.383 195.5,318.5 Z M 209.5,435.5 C 247.62,434.473 272.12,452.14 283,488.5C 283.5,515.831 283.667,543.165 283.5,570.5C 259.831,570.667 236.164,570.5 212.5,570C 174.156,563.99 153.489,541.657 150.5,503C 153.32,465.685 172.987,443.185 209.5,435.5 Z"/></g>
<g><path style="opacity:1" fill="#fefffe" d="M 574.5,476.5 C 613.753,474.718 643.586,490.385 664,523.5C 673.251,542.898 676.084,563.232 672.5,584.5C 629.165,584.333 585.832,584.5 542.5,585C 549.533,603.449 563.033,612.616 583,612.5C 593.608,612.477 603.108,609.311 611.5,603C 629.842,602.167 648.176,602.334 666.5,603.5C 644.969,643.934 611.303,661.101 565.5,655C 521.021,642.513 497.021,613.179 493.5,567C 496.726,520.82 520.393,491.154 564.5,478C 568.025,477.821 571.359,477.321 574.5,476.5 Z M 578.5,520.5 C 599.227,519.858 614.561,528.525 624.5,546.5C 597.5,547.833 570.5,547.833 543.5,546.5C 550.695,531.617 562.362,522.95 578.5,520.5 Z"/></g>
<g><path style="opacity:1" fill="#fefffe" d="M 772.5,476.5 C 822.703,475.893 854.869,499.559 869,547.5C 869.333,550.5 869.667,553.5 870,556.5C 870.5,612.166 870.667,667.832 870.5,723.5C 855.5,723.5 840.5,723.5 825.5,723.5C 825.667,696.831 825.5,670.165 825,643.5C 805.822,655.781 784.989,659.615 762.5,655C 718.286,642.129 694.286,612.629 690.5,566.5C 692.774,527.438 711.441,499.605 746.5,483C 755.081,479.849 763.748,477.683 772.5,476.5 Z M 776.5,520.5 C 802.38,520.224 818.547,532.557 825,557.5C 827.584,590.071 812.75,608.405 780.5,612.5C 752.553,609.886 737.886,594.552 736.5,566.5C 737.812,540.463 751.145,525.13 776.5,520.5 Z"/></g>
<g><path style="opacity:1" fill="#fefffe" d="M 972.5,476.5 C 1007.34,474.842 1035.18,487.842 1056,515.5C 1076.67,549.5 1076.67,583.5 1056,617.5C 1027.13,653.514 990.631,664.348 946.5,650C 911.287,633.443 892.62,605.609 890.5,566.5C 892.62,527.391 911.287,499.557 946.5,483C 955.081,479.849 963.748,477.683 972.5,476.5 Z M 977.5,520.5 C 1007.56,521.232 1023.56,536.565 1025.5,566.5C 1024.13,594.533 1009.47,609.866 981.5,612.5C 960.766,611.723 946.599,601.723 939,582.5C 931.358,548.739 944.191,528.072 977.5,520.5 Z"/></g>
</svg>
