<svg xmlns="http://www.w3.org/2000/svg" enable-background="new 0 0 32 32" viewBox="0 0 32 32" id="rewards"><path d="M29.936 22.077c-.676-.573-1.565-.819-2.442-.673l-8.511 1.419c-.044-.735-.339-1.421-.863-1.945-.566-.565-1.308-.871-2.119-.872-5.413.016-8.984.017-9.773.002C5.677 19.394 4.887 19 4 19H2c-.552 0-1 .448-1 1v10c0 .552.448 1 1 1h2c.883 0 1.67-.391 2.22-1H16c.07 0 .141-.007.209-.022l12.41-2.659c1.379-.296 2.38-1.534 2.38-2.945C31 23.487 30.612 22.65 29.936 22.077zM4 29H3v-8h1c.551 0 1 .449 1 1v6C5 28.551 4.551 29 4 29zM28.201 25.363L15.894 28H7v-5.986c1.244.01 3.763.007 9.006-.008.001 0 .002 0 .003 0 .264 0 .511.102.698.288C16.896 22.483 17 22.734 17 23.003 17 23.553 16.553 24 16.003 24H11c-.552 0-1 .448-1 1s.448 1 1 1h5.003c.895 0 1.691-.403 2.241-1.027l9.579-1.597c.298-.048.589.031.82.226C28.873 23.798 29 24.072 29 24.374 29 24.848 28.664 25.264 28.201 25.363zM14 19h4c4.962 0 9-4.038 9-9s-4.038-9-9-9h-4c-4.962 0-9 4.038-9 9S9.038 19 14 19zM25 10c0 3.174-2.125 5.856-5.025 6.712C21.826 15.062 23 12.668 23 10s-1.174-5.062-3.025-6.712C22.875 4.144 25 6.826 25 10zM14 3c3.86 0 7 3.14 7 7s-3.14 7-7 7-7-3.14-7-7S10.14 3 14 3z"></path><path d="M10.932,11.442l-0.391,2.396c-0.062,0.378,0.098,0.758,0.411,0.979c0.314,0.22,0.726,0.243,1.06,0.058L14,13.776l1.988,1.099C16.14,14.958,16.306,15,16.472,15c0.202,0,0.404-0.062,0.576-0.183c0.313-0.22,0.473-0.601,0.411-0.979l-0.391-2.396l1.647-1.688c0.262-0.268,0.352-0.66,0.232-1.016s-0.427-0.615-0.797-0.671l-2.236-0.342l-1.009-2.15C14.741,5.224,14.388,5,14,5s-0.741,0.224-0.905,0.575l-1.009,2.15L9.849,8.067C9.479,8.124,9.171,8.383,9.052,8.738S9.022,9.486,9.284,9.754L10.932,11.442z M12.915,9.622c0.33-0.051,0.613-0.262,0.754-0.564L14,8.354l0.331,0.705c0.142,0.302,0.424,0.513,0.754,0.564l0.84,0.128l-0.641,0.657c-0.222,0.227-0.322,0.546-0.271,0.859l0.141,0.862l-0.67-0.37c-0.15-0.083-0.317-0.125-0.484-0.125s-0.333,0.042-0.484,0.125l-0.67,0.37l0.141-0.862c0.051-0.313-0.049-0.632-0.271-0.859L12.075,9.75L12.915,9.622z"></path></svg>